<svg width="250" height="50" viewBox="0 0 250 50" fill="none" xmlns="http://www.w3.org/2000/svg">
<path d="M141.294 15.6297C141.294 17.6024 140.751 19.1957 139.587 20.258C138.501 21.3202 136.872 21.8513 134.777 21.8513H131.363V9.71167H135.165C137.104 9.71167 138.579 10.2428 139.665 11.305C140.751 12.2913 141.294 13.7329 141.294 15.6297ZM139.742 15.7056C139.742 14.1123 139.354 12.8983 138.501 12.1396C137.725 11.305 136.484 10.9256 134.854 10.9256H132.759V20.6373H134.544C136.251 20.6373 137.57 20.258 138.423 19.4234C139.354 18.5129 139.742 17.2989 139.742 15.7056Z" fill="white"/>
<path d="M152.778 21.8513H145.872V9.71167H152.778V11.0015H147.269V14.9469H152.39V16.1608H147.269V20.6373H152.778V21.8513Z" fill="white"/>
<path d="M164.339 9.63574H165.891L161.39 21.7753H159.994L155.571 9.63574H157.123L159.994 17.5265C160.304 18.437 160.614 19.2716 160.77 20.182C161.002 19.2716 161.235 18.3611 161.546 17.5265L164.339 9.63574Z" fill="white"/>
<path d="M176.288 21.8513H169.382V9.71167H176.288V11.0015H170.779V14.9469H175.9V16.1608H170.779V20.6373H176.288V21.8513Z" fill="white"/>
<path d="M180.788 21.8513V9.71167H182.263V20.5614H187.772V21.8513H180.788Z" fill="white"/>
<path d="M202.359 15.7056C202.359 17.6783 201.893 19.1957 200.885 20.2579C199.876 21.396 198.479 21.9271 196.695 21.9271C194.832 21.9271 193.436 21.396 192.427 20.2579C191.418 19.1957 190.953 17.6024 190.953 15.6297C190.953 13.657 191.418 12.1396 192.427 11.0015C193.436 9.93926 194.832 9.33228 196.695 9.33228C198.479 9.33228 199.876 9.86338 200.885 11.0015C201.816 12.2154 202.359 13.8088 202.359 15.7056ZM192.427 15.7056C192.427 17.3748 192.815 18.5887 193.513 19.4233C194.212 20.2579 195.298 20.7132 196.617 20.7132C198.014 20.7132 199.022 20.2579 199.721 19.4233C200.419 18.5887 200.807 17.2989 200.807 15.7056C200.807 14.0364 200.419 12.8224 199.721 11.9878C199.022 11.1532 198.014 10.698 196.617 10.698C195.22 10.698 194.212 11.1532 193.513 11.9878C192.815 12.8983 192.427 14.1122 192.427 15.7056Z" fill="white"/>
<path d="M214.773 13.2018C214.773 14.4157 214.308 15.4021 213.454 16.009C212.601 16.6919 211.359 16.9954 209.73 16.9954H208.256V21.7753H206.781V9.63574H210.04C213.222 9.63574 214.773 10.8497 214.773 13.2018ZM208.333 15.8573H209.652C210.971 15.8573 211.825 15.6297 212.446 15.2503C212.989 14.8709 213.299 14.1881 213.299 13.2776C213.299 12.443 213.066 11.9119 212.523 11.4567C211.98 11.0773 211.127 10.8497 210.04 10.8497H208.411V15.8573H208.333Z" fill="white"/>
<path d="M226.024 21.8513H219.119V9.71167H226.024V11.0015H220.515V14.9469H225.636V16.1608H220.515V20.6373H226.024V21.8513Z" fill="white"/>
<path d="M231.921 16.7678V21.8513H230.447V9.71167H233.861C235.413 9.71167 236.499 10.0152 237.275 10.5463C237.973 11.1532 238.361 11.9878 238.361 13.1259C238.361 14.7193 237.508 15.8573 235.878 16.3885L239.292 21.8513H237.585L234.559 16.7678H231.921ZM231.921 15.5539H233.939C234.947 15.5539 235.723 15.3262 236.189 14.9469C236.654 14.5675 236.887 13.9605 236.887 13.1259C236.887 12.2913 236.654 11.7602 236.189 11.3809C235.723 11.0015 234.947 10.8498 233.861 10.8498H231.999V15.5539H231.921Z" fill="white"/>
<path d="M250 18.5887C250 19.6509 249.612 20.4855 248.836 21.0925C248.06 21.6995 246.974 22.003 245.577 22.003C244.103 22.003 242.939 21.8512 242.163 21.4719V20.1062C242.706 20.3338 243.25 20.4855 243.793 20.6373C244.413 20.789 244.957 20.789 245.577 20.789C246.508 20.789 247.284 20.6373 247.75 20.2579C248.215 19.8785 248.448 19.4233 248.448 18.7405C248.448 18.2852 248.371 17.9817 248.215 17.6782C248.06 17.3748 247.75 17.1471 247.362 16.9195C246.974 16.6919 246.353 16.4643 245.5 16.1608C244.336 15.7814 243.482 15.2503 243.017 14.7192C242.551 14.1881 242.241 13.4294 242.241 12.5189C242.241 11.6084 242.629 10.8497 243.327 10.3186C244.026 9.7875 245.034 9.48401 246.198 9.48401C247.44 9.48401 248.603 9.71163 249.612 10.1669L249.147 11.3808C248.138 10.9256 247.129 10.7738 246.121 10.7738C245.345 10.7738 244.724 10.9256 244.336 11.2291C243.87 11.5326 243.715 11.9878 243.715 12.5948C243.715 13.05 243.793 13.3535 243.948 13.657C244.103 13.9605 244.336 14.1881 244.724 14.4157C245.112 14.6433 245.655 14.871 246.431 15.1744C247.75 15.6297 248.603 16.0849 249.147 16.616C249.767 17.0713 250 17.7541 250 18.5887Z" fill="white"/>
<path d="M139.199 42.261L137.647 38.3915H132.682L131.13 42.261H129.656L134.544 30.0455H135.785L140.674 42.261H139.199ZM137.182 37.1017L135.708 33.3081C135.552 32.8528 135.32 32.2458 135.165 31.563C135.009 32.0941 134.854 32.7011 134.621 33.3081L133.147 37.1017H137.182Z" fill="white"/>
<path d="M149.441 31.1836C148.045 31.1836 146.958 31.6388 146.183 32.5493C145.407 33.4597 145.019 34.6737 145.019 36.1912C145.019 37.7845 145.407 38.9984 146.183 39.9089C146.958 40.7435 148.045 41.1987 149.441 41.1987C150.295 41.1987 151.304 41.047 152.39 40.7435V41.9575C151.536 42.261 150.45 42.4127 149.209 42.4127C147.346 42.4127 145.95 41.8816 144.941 40.8194C143.932 39.7572 143.467 38.1638 143.467 36.1912C143.467 34.9013 143.7 33.8391 144.165 32.9286C144.631 32.0182 145.329 31.2594 146.26 30.7283C147.191 30.1972 148.2 29.9696 149.441 29.9696C150.76 29.9696 151.847 30.1972 152.855 30.6525L152.235 31.8664C151.381 31.4112 150.372 31.1836 149.441 31.1836Z" fill="white"/>
<path d="M164.649 42.261L163.097 38.3915H158.132L156.58 42.261H155.183L160.071 30.0455H161.313L166.201 42.261H164.649ZM162.709 37.1017L161.235 33.3081C161.08 32.8528 160.847 32.2458 160.692 31.563C160.537 32.0941 160.382 32.7011 160.149 33.3081L158.675 37.1017H162.709Z" fill="white"/>
<path d="M179.547 36.0394C179.547 38.0121 179.004 39.6054 177.84 40.6676C176.754 41.7298 175.124 42.2609 173.029 42.2609H169.615V30.1213H173.417C175.357 30.1213 176.831 30.6524 177.917 31.7147C179.004 32.701 179.547 34.1426 179.547 36.0394ZM177.995 36.1153C177.995 34.5219 177.607 33.308 176.754 32.5493C175.978 31.7147 174.736 31.3353 173.107 31.3353H171.012V41.047H172.796C174.503 41.047 175.822 40.6676 176.676 39.833C177.607 38.9225 177.995 37.7086 177.995 36.1153Z" fill="white"/>
<path d="M191.03 42.2609H184.125V30.1213H191.03V31.4112H185.521V35.3565H190.642V36.5705H185.521V40.9711H191.03V42.2609Z" fill="white"/>
<path d="M200.962 42.2609L196.772 31.487H196.695C196.772 32.3216 196.85 33.3839 196.85 34.5219V42.2609H195.531V30.1213H197.703L201.66 40.1365H201.738L205.695 30.1213H207.868V42.2609H206.394V34.4461C206.394 33.5356 206.471 32.5493 206.549 31.487H206.394L202.126 42.2609H200.962Z" fill="white"/>
<path d="M216.093 36.1911L219.429 30.1213H220.981L216.868 37.5568V42.2609H215.394V37.6327L211.282 30.1213H212.834L216.093 36.1911Z" fill="white"/>
<path d="M0 43.5509V42.1852H5.81937L18.0788 5.61462H19.6307L33.5196 42.2611H38.3302V43.6268H20.4842V42.2611H27.157L22.6567 30.2732H11.5611L7.60397 42.2611H13.1906V43.6268H0V43.5509ZM12.0267 28.9075H22.1912L16.8374 14.7193L12.0267 28.9075Z" fill="white"/>
<path d="M43.2961 38.5433C42.4426 36.7223 41.9771 34.5979 41.9771 32.0941C41.9771 29.6662 42.4426 27.4659 43.2961 25.6449C44.1496 23.824 45.3911 22.4583 46.9429 21.4719C48.3396 20.6373 49.969 20.1821 51.7536 20.1821C54.9348 20.1821 57.4954 21.7754 59.3576 24.9621L59.7455 24.8862V5.91806H54.3141V4.7041H64.1682V42.3369H67.9702V43.5508H59.8231V39.302L59.4351 39.2261C57.5729 42.4128 55.0124 44.0061 51.8312 44.0061C50.0466 44.0061 48.4947 43.5508 47.0205 42.7162C45.4687 41.7299 44.2272 40.3642 43.2961 38.5433ZM47.4861 26.9348C47.0981 28.3763 46.8653 30.1214 46.8653 32.0941C46.8653 34.0668 47.0981 35.8118 47.4861 37.2534C47.874 38.695 48.5723 39.909 49.581 40.8953C50.5897 41.8816 51.8312 42.3369 53.3054 42.3369C55.0124 42.3369 56.4867 41.3505 57.8833 39.4537C59.2024 37.5569 59.9007 35.0531 59.9007 32.0941C59.9007 29.0592 59.2024 26.6313 57.8833 24.7344C56.5643 22.8376 55.0124 21.8513 53.3054 21.8513C51.8312 21.8513 50.5897 22.3065 49.581 23.2929C48.5723 24.2792 47.874 25.4932 47.4861 26.9348Z" fill="white"/>
<path d="M74.1 38.5432C74.1 36.4947 74.6431 34.9013 75.807 33.915C76.8933 32.9286 78.5227 32.2458 80.5401 32.0182C81.9367 31.8664 83.1006 31.5629 84.0317 31.2595C84.9628 30.8801 85.9715 30.4249 86.9802 29.742V27.0106C86.9802 26.4036 86.9026 25.7208 86.7474 25.1896C86.5922 24.5827 86.3594 24.0516 86.0491 23.4446C85.7387 22.8376 85.1956 22.3824 84.5748 22.0789C83.9541 21.6995 83.1006 21.5478 82.1695 21.5478C81.0832 21.5478 80.1521 21.7754 79.3762 22.2306C78.5227 22.6859 78.1347 23.2928 78.1347 23.9757C78.1347 24.3551 78.2899 24.8103 78.6003 25.3414C78.9882 25.8725 79.1434 26.4036 79.1434 26.9347C79.1434 27.4658 78.9882 27.8452 78.6003 28.2246C78.2123 28.6039 77.6692 28.7557 76.8933 28.7557C76.0398 28.7557 75.419 28.528 75.0311 28.0728C74.6431 27.6176 74.4103 27.0106 74.4103 26.3277C74.4103 24.7344 75.1863 23.3687 76.7381 22.0789C78.2899 20.8649 80.2297 20.2579 82.4023 20.2579C85.5059 20.2579 87.7561 21.0925 89.1527 22.6859C90.5494 24.2792 91.2477 26.4036 91.2477 29.0591V39.4537C91.2477 40.5159 91.4805 41.2746 92.0236 41.7299C92.5668 42.1851 93.1875 42.4886 93.8858 42.4886C94.429 42.4886 94.9721 42.4127 95.5928 42.3368L95.8256 43.6267C94.9721 43.8543 94.1962 44.006 93.5755 44.006C91.8684 44.006 90.4718 43.7026 89.4631 43.1714C88.4544 42.6403 87.6785 41.5022 87.2129 39.9089H86.9802C86.1267 41.1988 85.118 42.1851 84.1093 42.9438C83.023 43.6267 81.7039 44.006 79.9969 44.006C78.2123 44.006 76.7381 43.5508 75.6518 42.5645C74.6431 41.5781 74.1 40.2883 74.1 38.5432ZM78.4451 38.1639C78.4451 40.8194 79.6866 42.1092 82.2471 42.1092C83.1782 42.1092 84.0317 41.7299 84.8852 41.047C85.7387 40.3642 86.437 39.4537 86.9802 38.3915V30.8801C86.1267 31.4112 85.3507 31.7906 84.5748 32.094C83.7989 32.3975 82.7126 32.701 81.2384 33.0045C79.3762 33.5356 78.4451 35.2807 78.4451 38.1639Z" fill="white"/>
<path d="M113.361 0H112.275V50H113.361V0Z" fill="white"/>
</svg>
