<svg width="26" height="25" viewBox="0 0 26 25" fill="none" xmlns="http://www.w3.org/2000/svg">
<path d="M8.70161 20.0913C8.70161 20.0913 8.64919 20.0396 8.59677 19.988C8.54435 19.988 8.49193 19.9363 8.3871 19.9363C8.17742 19.9363 8.125 20.0396 8.125 20.1429C8.125 20.2979 8.17742 20.3495 8.3871 20.3495C8.59677 20.3495 8.70161 20.2462 8.70161 20.0913ZM7.07661 19.8847C7.07661 19.7814 7.18145 19.7298 7.39113 19.7814C7.54839 19.833 7.60081 19.8847 7.60081 19.988C7.60081 20.0913 7.54839 20.1429 7.49597 20.1429C7.39113 20.1946 7.33871 20.1946 7.28629 20.1429C7.18145 20.1429 7.12903 20.0913 7.07661 20.0396C7.02419 19.988 7.02419 19.9363 7.07661 19.8847ZM9.38306 19.7814C9.54032 19.7814 9.64516 19.833 9.64516 19.9363C9.64516 20.0396 9.59274 20.1429 9.43548 20.1946C9.33064 20.1946 9.27823 20.1946 9.22581 20.1946C9.17339 20.1946 9.12097 20.0913 9.12097 19.988C9.12097 19.8847 9.17339 19.833 9.38306 19.7814ZM12.8427 0C15.2016 0 17.4032 0.568134 19.4476 1.65275C21.4395 2.78902 23.0645 4.28683 24.2177 6.14618C25.371 8.10883 26 10.2781 26 12.6023C26 15.4946 25.1613 18.0254 23.5363 20.2979C21.9113 22.5704 19.8145 24.1199 17.1935 24.9463C16.879 25.0496 16.6694 24.9979 16.5121 24.843C16.3548 24.7397 16.3024 24.5331 16.3024 24.3265V19.988C16.3024 18.9034 15.9879 18.1286 15.4113 17.6122C16.6694 17.5089 17.6653 17.3023 18.2944 17.0957C19.2379 16.7858 20.0242 16.2693 20.5484 15.5462C21.125 14.6682 21.4395 13.4286 21.4395 11.8792C21.4395 11.2594 21.2823 10.6913 21.0726 10.1748C20.8629 9.86488 20.5484 9.40004 20.0766 8.88355C20.1815 8.57366 20.2863 8.16047 20.3387 7.64399C20.3387 6.92091 20.2339 6.14618 19.9718 5.37145C19.6048 5.26815 19.1331 5.37145 18.504 5.57805C18.0847 5.78464 17.5605 5.99123 17.0363 6.30113L16.3548 6.76596C15.254 6.45607 14.1532 6.30113 13 6.30113C11.8468 6.30113 10.7984 6.45607 9.75 6.76596L9.06855 6.30113C8.49193 5.99123 7.96774 5.78464 7.54839 5.57805C6.91935 5.37145 6.44758 5.26815 6.13306 5.37145C5.81855 6.14618 5.66129 6.92091 5.76613 7.64399C5.76613 8.16047 5.81855 8.52201 5.97581 8.83191C5.55645 9.34839 5.24194 9.86488 5.03226 10.2781C4.82258 10.6913 4.77016 11.2594 4.77016 11.8792C4.77016 13.4286 5.03226 14.6682 5.60887 15.4946C6.08065 16.2177 6.81452 16.7858 7.81048 17.0957C8.43952 17.3023 9.38306 17.5089 10.6411 17.6122C10.1694 18.0254 9.90726 18.6451 9.80242 19.3682C9.17339 19.6781 8.59677 19.7814 8.07258 19.6781C7.12903 19.6265 6.44758 19.1616 5.97581 18.2836C5.76613 17.9221 5.45161 17.6122 5.1371 17.3539C4.875 17.2506 4.6129 17.0957 4.35081 16.9924L3.98387 16.9407C3.56452 16.9407 3.35484 17.044 3.35484 17.1473C3.35484 17.2506 3.40726 17.4056 3.61694 17.5089L3.87903 17.7155C4.08871 17.8704 4.35081 18.077 4.6129 18.3869C4.82258 18.6451 4.97984 18.9034 5.1371 19.2133L5.34677 19.6265C5.50403 20.1429 5.81855 20.5561 6.34274 20.8144C6.7621 21.0726 7.23387 21.2276 7.8629 21.2792C8.28226 21.3309 8.70161 21.3309 9.17339 21.2276L9.75 21.1759L9.80242 24.3265C9.80242 24.5331 9.69758 24.7397 9.54032 24.843C9.38306 24.9979 9.17339 25.0496 8.91129 24.9463C6.2379 24.1199 4.08871 22.5704 2.46371 20.2979C0.78629 18.0254 0 15.4946 0 12.6023C0 10.2781 0.524194 8.16047 1.67742 6.19783C2.77823 4.28683 4.29839 2.78902 6.29032 1.65275C8.22984 0.568134 10.4315 0 12.8427 0ZM5.08468 17.8188C5.1371 17.7671 5.24194 17.7671 5.34677 17.8704C5.45161 17.9737 5.45161 18.077 5.39919 18.1286C5.29435 18.2319 5.24194 18.1803 5.1371 18.077C5.03226 17.9737 4.97984 17.9221 5.08468 17.8188ZM4.50806 17.4056C4.56048 17.3539 4.66532 17.3539 4.77016 17.4056C4.875 17.4572 4.875 17.5089 4.875 17.6122C4.82258 17.7155 4.71774 17.7155 4.6129 17.6122C4.50806 17.5605 4.45565 17.5089 4.50806 17.4056ZM6.2379 19.2133C6.2379 19.2133 6.29032 19.2133 6.39516 19.2133C6.44758 19.2133 6.5 19.2649 6.55242 19.3166C6.60484 19.3682 6.65726 19.4199 6.65726 19.4715C6.65726 19.5748 6.65726 19.6265 6.65726 19.6265C6.55242 19.7298 6.39516 19.7298 6.29032 19.5748C6.18548 19.5232 6.18548 19.4715 6.18548 19.3682C6.18548 19.3166 6.18548 19.2649 6.2379 19.2133ZM5.60887 18.4902C5.66129 18.4902 5.71371 18.4902 5.76613 18.4902C5.81855 18.4902 5.87097 18.5418 5.92339 18.5935C6.02823 18.7484 6.02823 18.8517 5.92339 18.9034C5.87097 18.955 5.81855 18.955 5.76613 18.9034C5.71371 18.9034 5.66129 18.8517 5.60887 18.8001C5.50403 18.6451 5.50403 18.5418 5.60887 18.4902Z" fill="white"/>
</svg>
